<svg xmlns="http://www.w3.org/2000/svg"  viewBox="0 0 80 80" width="80px" height="80px"><path fill="#66798f" d="M54,21h-4v-6c0-1.1-0.9-2-2-2H32c-1.1,0-2,0.9-2,2v6h-4v-6c0-3.3,2.7-6,6-6h16c3.3,0,6,2.7,6,6V21z"/><path fill="#ffeea3" d="M1.5 33.5H78.5V70.5H1.5z"/><path fill="#ba9b48" d="M78,34v36H2V34H78 M79,33H1v38h78V33L79,33z"/><path fill="#e1ebf2" d="M1.5,39.5V23c0-1.9,1.6-3.5,3.5-3.5h70c1.9,0,3.5,1.6,3.5,3.5v16.5H1.5z"/><path fill="#788b9c" d="M75,20c1.7,0,3,1.3,3,3v16H2V23c0-1.7,1.3-3,3-3H75 M75,19H5c-2.2,0-4,1.8-4,4v17h78V23 C79,20.8,77.2,19,75,19L75,19z"/><g><path fill="#fff" d="M17.5 33.5H25.5V46.5H17.5z"/><path fill="#788b9c" d="M25,34v12h-7V34H25 M26,33h-9v14h9V33L26,33z"/></g><g><path fill="#fff" d="M54.5 33.5H62.5V46.5H54.5z"/><path fill="#788b9c" d="M62,34v12h-7V34H62 M63,33h-9v14h9V33L63,33z"/></g></svg>